<?xml version="1.0" encoding="iso-8859-1"?>
<!-- Generator: Adobe Illustrator 19.0.0, SVG Export Plug-In . SVG Version: 6.00 Build 0)  -->
<svg xmlns="http://www.w3.org/2000/svg" xmlns:xlink="http://www.w3.org/1999/xlink" version="1.1" id="Layer_1" x="0px" y="0px" viewBox="0 0 458.751 458.751" style="enable-background:new 0 0 458.751 458.751;" xml:space="preserve" width="512px" height="512px">
<g id="XMLID_439_">
	<g>
		<g>
			<path d="M211.765,65.712h-13.817V55.395c0-3.139-2.544-5.683-5.683-5.683h-5.5v-11c0-4.418-3.582-8-8-8c-4.418,0-8,3.582-8,8v11     h-5.5c-3.139,0-5.683,2.544-5.683,5.683v17.031c6.721-0.005,13.502,2.063,19.322,6.366c9.997,7.391,14.527,19.425,12.825,30.92     h0.536c3.139,0,5.683-2.544,5.683-5.683V93.712h13.817c3.139,0,5.683-2.544,5.683-5.683V71.395     C217.448,68.257,214.904,65.712,211.765,65.712z" fill="#FFFFFF"/>
			<circle cx="109.574" cy="53.093" r="36.01" fill="#FFFFFF"/>
			<path d="M169.987,90.853c-7.771-5.746-18.732-4.104-24.476,3.667L107.9,145.389l-28.689-21.218l20.097,7.608l16.031-21.682     c-3.196-1.79-6.814-2.945-10.703-3.265l-46.838-3.85c-14.506-1.192-27.231,9.6-28.424,24.106L21.052,262.07l11.037,71.969     l-26.91,98.152c-3.066,11.185,3.516,22.739,14.7,25.805c11.178,3.066,22.737-3.509,25.806-14.7l28.093-102.467     c0.779-2.844,0.951-5.821,0.505-8.736l-10.198-66.486l8.17,0.672l25.051,68.3L76.38,433.394     c-2.403,11.346,4.847,22.492,16.193,24.895c11.349,2.403,22.492-4.849,24.895-16.194l22.178-104.726     c0.818-3.862,0.531-7.876-0.828-11.582l-21.026-57.327l5.334-64.894c-10.493,4.812-23.267,2.151-30.886-7.572l-33.842-43.685     l42.761,31.625c7.771,5.746,18.731,4.104,24.478-3.666l48.017-64.942C179.4,107.557,177.758,96.599,169.987,90.853z" fill="#FFFFFF"/>
			<path d="M453.452,104.269l-25.25-77.16c-3.005-9.185-12.887-14.194-22.074-11.189c-3.746,1.226-6.781,3.607-8.878,6.607     c-2.27-0.932-4.724-1.443-7.286-1.443c-5.369,0-10.265,2.24-13.978,5.92c-6.459-6.142-15.188-9.92-24.805-9.92     c-4.655,0-9.098,0.893-13.182,2.501c-15.575-1.838-22.564-12.712-25.194-18.418c-0.685-1.487-2.754-1.57-3.57-0.15     c-8.605,14.965,0.035,30.73,7.835,40.543c-1.747,5.169-2.373,10.854-1.52,16.783c2.367,16.452,16.034,29.28,32.599,30.636     c16.28,1.332,30.521-8.176,36.298-22.085c1.759,0.53,3.607,0.819,5.517,0.819c4.931,0,9.462-1.892,13.046-5.051l11.167,34.123     l-34.801,7.672c-23.95,0-32.208,0-58.294,0c-18.28,0-28.272,9.039-37.088,17.013c0,0-20.064,17.794-44.228,39.4     c-7.262,6.512-7.796,17.708-1.197,24.879l39.5,42.934c4.242,4.61,10.67,6.688,17.037,5.136l-12.86,66.394     c-1.158,5.976,3.449,11.499,9.476,11.499c3.7,0,8.15,0,13.108,0v125.536c0,11.387,8.854,21.085,20.233,21.49     c11.947,0.425,21.767-9.134,21.767-20.986v-126.04h8.702v125.536c0,11.387,8.854,21.085,20.233,21.49     c11.947,0.425,21.767-9.134,21.767-20.986v-126.04c4.959,0,9.409,0,13.108,0c6.058,0,10.633-5.529,9.476-11.499     c-28.219-145.696-22.684-113.077-28.737-162.562l49.207-10.848C450.695,124.573,456.669,114.096,453.452,104.269z      M301.236,202.169l-24.891-27.054c2.482-2.215,33.728-30.02,33.728-30.02C305.405,183.259,307.42,170.243,301.236,202.169z" fill="#FFFFFF"/>
		</g>
	</g>
</g>
<g>
</g>
<g>
</g>
<g>
</g>
<g>
</g>
<g>
</g>
<g>
</g>
<g>
</g>
<g>
</g>
<g>
</g>
<g>
</g>
<g>
</g>
<g>
</g>
<g>
</g>
<g>
</g>
<g>
</g>
</svg>
